<svg xmlns="http://www.w3.org/2000/svg"
shape-rendering="geometricPrecision"
width="4000" height="4000" viewBox="0 0 704 704">
  <metadata>null</metadata>

<path d="
M 31.964 317.617
C 32.3 314.636 32.051 311.491 32.059 308.492
C 32.075 302.659 32.056 296.826 32.053 290.994
C 32.051 287.859 31.109 282.721 32.878 279.981
C 35.416 276.051 39.957 276.343 44.081 276.52
C 48.384 276.705 52.704 276.662 57.009 276.75
C 59.88 276.809 62.682 277.23 64.461 279.777
C 65.778 281.664 65.209 284.817 65.219 287.004
C 65.244 292.503 65.446 298.007 65.355 303.504
C 66.239 303.15 66.889 302.196 67.625 301.583
C 69.198 300.273 70.756 298.941 72.353 297.658
C 78.132 293.017 83.99 288.357 89.535 283.439
C 92.279 281.006 96.325 275.993 100.372 276.462
C 102.957 276.761 104.981 278.896 106.876 280.48
C 110.141 283.21 113.561 285.767 116.854 288.465
C 128.165 297.733 139.718 306.733 151.234 315.744
C 156.583 319.93 163.25 323.663 165.295 330.597
C 166.52 334.75 166.141 339.222 166.128 343.496
C 166.11 349.83 166.153 356.164 166.17 362.498
C 166.18 366.129 167.165 370.976 164.72 373.999
C 162.402 376.866 159.387 376.632 156.002 376.635
C 152.335 376.639 148.667 376.651 145 376.683
C 142.915 376.701 140.206 377.166 138.195 376.551
C 134.236 375.34 133.34 371.056 133.308 367.532
C 133.261 362.523 133.219 357.513 133.175 352.504
C 133.158 350.551 133.638 347.692 132.88 345.862
C 132.478 344.893 131.322 344.109 130.549 343.448
C 128.84 341.986 127.023 340.659 125.298 339.217
C 119.355 334.25 113.127 329.614 107.062 324.797
C 105.293 323.393 103.488 322.018 101.764 320.56
C 100.979 319.896 100.049 318.862 99.049 318.602
C 91.243 325.605 83.02 332.215 74.954 338.92
C 72.491 340.968 70.065 343.055 67.588 345.087
C 66.493 345.985 65.253 347.223 63.884 347.683
C 60.165 348.936 54.871 347.928 50.978 347.924
C 45.167 347.918 36.15 349.786 32.867 343.692
C 31.464 341.087 31.882 337.78 31.897 334.919
C 31.929 329.161 31.737 323.37 31.964 317.617 Z
M 40.842 285.966
C 40.372 289.708 40.748 293.733 40.788 297.504
C 40.86 304.17 40.873 310.837 40.858 317.503
C 40.848 322.003 40.823 326.502 40.827 331.002
C 40.828 333.476 40.534 336.254 41.078 338.679
C 45.883 338.825 50.693 338.838 55.501 338.836
C 57.13 338.836 59.803 339.342 61.316 338.711
C 64.014 337.587 66.54 334.435 68.828 332.625
C 75.175 327.604 81.512 322.373 87.495 316.92
C 89.698 314.912 91.929 312.943 94.256 311.079
C 95.336 310.213 96.585 309.006 97.983 308.715
C 99.502 308.398 100.909 309.303 102.098 310.139
C 104.544 311.858 106.92 313.738 109.233 315.633
C 116.531 321.609 124.034 327.381 131.54 333.094
C 134.714 335.51 140.044 338.628 141.34 342.589
C 141.988 344.566 141.751 346.938 141.791 348.997
C 141.87 353.141 141.912 357.286 141.927 361.431
C 141.934 363.391 141.638 365.675 142.215 367.569
C 146.979 367.891 152.416 368.183 157.16 367.634
C 157.873 359.546 157.254 351.119 157.258 342.997
C 157.259 339.885 158.105 335.221 156.782 332.353
C 155.769 330.156 153.562 328.489 151.737 326.991
C 148.433 324.28 145.038 321.69 141.696 319.028
C 132.366 311.596 123.001 304.198 113.646 296.801
C 110.802 294.552 107.926 292.339 105.116 290.049
C 103.487 288.721 101.938 287.061 100.03 286.141
C 98.603 286.909 97.454 288.213 96.18 289.211
C 93.255 291.5 90.371 293.851 87.566 296.287
C 81.835 301.263 75.793 305.883 69.984 310.768
C 67.595 312.777 65.234 314.949 62.745 316.826
C 61.62 317.674 60.093 318.261 58.73 317.537
C 55.577 315.862 56.594 312.185 56.602 309.253
C 56.623 301.577 56.283 293.784 56.693 286.126
C 51.444 285.959 46.091 285.665 40.842 285.966 Z"
opacity="1" fill="rgb(104,149,179)" fill-rule="evenodd" />
<path d="
M 31.968 380.118
C 32.402 376.125 30.749 370.581 33.583 367.293
C 34.609 366.102 35.931 364.849 37.526 364.534
C 39.792 364.087 42.325 364.316 44.625 364.296
C 48.011 364.267 51.397 364.246 54.784 364.238
C 58.448 364.229 61.548 364.108 64.065 367.191
C 65.917 369.459 65.332 372.753 65.344 375.503
C 65.369 381.282 64.767 387.461 65.592 393.186
C 80.521 393.657 95.56 393.015 110.501 393.062
C 124.015 393.105 137.529 393.034 151.042 393.027
C 155.297 393.025 162.459 391.477 165.335 395.321
C 166.806 397.287 165.903 400.579 165.885 402.875
C 165.795 414.43 158.154 422.777 147.489 426.42
C 138.994 429.321 128.849 427.865 119.995 427.852
C 105.1 427.83 90.017 427.231 75.14 427.943
C 63.038 428.523 49.481 428.664 40.32 419.368
C 30.013 408.91 31.441 393.695 31.968 380.118 Z
M 40.92 374.582
C 40.396 379.987 40.761 385.574 40.74 391.005
C 40.716 397.125 40.178 403.444 43.357 408.959
C 46.169 413.838 51.199 417.304 56.648 418.55
C 60.477 419.425 64.86 419.074 68.758 419.03
C 82.833 418.87 96.918 418.917 110.998 418.849
C 117.998 418.816 125.001 418.731 132.001 418.827
C 138.046 418.91 143.712 419.426 149.112 416.206
C 152.897 413.95 155.84 410.894 156.744 406.451
C 157.024 405.076 157.307 403.372 156.631 402.082
C 153.986 401.659 151.171 402.086 148.498 402.097
C 143.332 402.119 138.167 402.089 133.001 402.103
C 116.87 402.147 100.734 402.142 84.602 402.036
C 79.171 402.001 73.745 401.859 68.312 401.908
C 64.652 401.94 61.314 402.345 58.614 399.404
C 56.174 396.746 56.554 393.632 56.624 390.255
C 56.738 384.795 56.47 379.275 56.713 373.829
C 51.626 373.393 46.141 373.515 41.052 373.903
C 41.008 374.129 40.964 374.355 40.92 374.582 Z"
opacity="1" fill="rgb(101,150,181)" fill-rule="evenodd" />
<path d="
M 212.971 314.605
C 213.485 310.411 217.877 311.258 221.059 311.298
C 222.715 311.319 224.856 311.28 225.594 313.151
C 225.977 314.121 225.704 315.483 225.701 316.503
C 225.695 318.67 225.671 320.838 225.675 323.005
C 225.693 330.886 226.021 338.846 225.683 346.718
C 226.689 347.042 227.947 346.817 229 346.815
C 231.334 346.809 233.668 346.822 236.003 346.823
C 244.257 346.824 252.582 346.512 260.829 346.856
C 260.753 339.072 260.732 331.286 260.749 323.501
C 260.755 320.565 259.92 316.33 260.886 313.554
C 261.179 312.71 261.779 311.883 262.611 311.499
C 263.479 311.098 264.535 311.232 265.461 311.224
C 267.782 311.206 272.03 310.418 273.418 312.835
C 274.174 314.151 273.739 316.522 273.747 318.004
C 273.767 322.003 273.75 326.003 273.751 330.003
C 273.754 344.669 273.728 359.336 273.735 374.003
C 273.737 378.503 273.756 383.003 273.718 387.503
C 273.701 389.406 274.145 392.062 273.286 393.822
C 272.569 395.291 270.912 395.279 269.5 395.33
C 266.83 395.428 262.532 396.317 260.991 393.539
C 260.501 390.637 260.872 387.437 260.865 384.497
C 260.851 378.831 260.805 373.165 260.798 367.499
C 260.794 364.595 261.059 361.561 260.749 358.673
C 252.213 359.185 243.552 358.881 235.002 358.878
C 232.728 358.877 230.439 358.807 228.167 358.893
C 227.376 358.923 226.443 358.795 225.866 359.368
C 225.644 367.408 225.747 375.459 225.687 383.502
C 225.661 386.809 226.358 391.215 225.12 394.305
C 223.656 396.146 219.636 395.589 217.485 395.551
C 216.754 395.539 215.88 395.562 215.174 395.353
C 214.196 395.063 213.085 394.04 212.978 392.993
C 212.732 390.585 213.052 387.926 213.058 385.494
C 213.071 379.501 213.194 373.483 213.028 367.492
C 212.664 354.391 212.894 341.232 213.041 328.129
C 213.091 323.633 212.793 319.09 212.971 314.605 Z"
opacity="1" fill="rgb(9,125,184)" fill-rule="evenodd" />
<path d="
M 287.972 379.117
C 288.174 370.919 288.168 362.706 288.092 354.503
C 288.049 349.877 287.575 344.894 290.409 340.912
C 293.001 337.271 296.736 336.561 300.836 336.011
C 305.272 335.415 310.032 335.851 314.506 335.84
C 319.986 335.828 325.669 335.374 331.102 336.171
C 334.559 336.678 337.881 338.735 339.756 341.712
C 342.316 345.779 341.649 351.161 341.584 355.759
C 341.45 365.168 341.84 374.695 341.351 384.092
C 341.276 385.531 341.005 386.916 340.418 388.237
C 336.756 396.482 327.52 395.406 319.998 395.369
C 317.498 395.357 314.998 395.345 312.498 395.344
C 304.42 395.342 291.919 397.508 288.707 387.566
C 287.847 384.902 287.904 381.891 287.972 379.117 Z
M 299.965 350.115
C 299.626 353.02 299.89 356.082 299.885 359.004
C 299.878 364.003 299.808 369.002 299.808 374.001
C 299.808 376.562 298.994 380.741 300.962 382.741
C 302.719 384.526 305.674 383.908 307.948 383.902
C 311.673 383.892 315.404 383.818 319.128 383.908
C 321.274 383.96 323.551 384.269 325.685 384.035
C 327.488 383.836 328.896 382.416 329.241 380.66
C 329.779 377.915 329.306 374.788 329.3 372
C 329.287 366.665 329.339 361.331 329.361 355.997
C 329.371 353.518 330.278 349.514 328.096 347.746
C 326.405 346.376 323.474 346.919 321.447 346.933
C 316.059 346.969 310.508 346.505 305.139 346.974
C 302.8 347.178 300.299 347.25 299.965 350.115 Z"
opacity="1" fill="rgb(12,125,184)" fill-rule="evenodd" />
<path d="
M 354.985 349.115
C 355.334 346.023 355.693 343.099 357.754 340.599
C 362.656 334.655 371.448 335.746 378.296 335.73
C 381.347 335.723 384.449 335.556 387.482 335.973
C 389.368 336.231 391.24 336.814 393.022 337.473
C 393.828 337.771 394.6 338.412 395.489 338.423
C 397.8 338.453 400.365 336.461 402.73 336.074
C 405.781 335.575 408.964 335.758 412.043 335.762
C 420.392 335.771 432.542 334.67 435.72 344.771
C 436.919 348.581 436.368 353.061 436.34 357.003
C 436.29 364.169 436.279 371.337 436.302 378.504
C 436.313 381.837 436.309 385.17 436.316 388.503
C 436.32 390.122 436.58 392.047 436.126 393.622
C 435.335 396.363 430.248 395.643 428.148 395.615
C 427.235 395.603 425.966 395.653 425.194 395.089
C 424.088 394.28 424.235 392.872 424.214 391.652
C 424.167 388.883 424.193 386.113 424.198 383.344
C 424.212 375.395 424.011 367.446 423.967 359.499
C 423.949 356.347 424.749 351.718 423.575 348.759
C 422.799 346.802 420.643 346.808 418.858 346.813
C 414.886 346.824 410.89 346.688 406.922 346.85
C 405.167 346.922 403.128 347.182 402.212 348.925
C 401.566 350.154 401.699 351.736 401.675 353.077
C 401.629 355.718 401.657 358.361 401.652 361.002
C 401.638 368.168 401.627 375.335 401.615 382.502
C 401.609 386.097 402.211 390.356 401.233 393.84
C 399.86 396.278 394.878 395.615 392.509 395.473
C 391.327 395.402 389.822 395.168 389.511 393.773
C 388.747 390.34 389.443 386.014 389.433 382.496
C 389.409 374.495 389.379 366.495 389.392 358.495
C 389.397 355.027 390.795 348.134 386.093 347.194
C 381.98 346.371 377.325 346.801 373.145 346.795
C 371.42 346.792 369.188 346.615 367.892 347.976
C 366.931 348.984 367.125 350.51 367.122 351.799
C 367.116 354.474 367.113 357.148 367.096 359.822
C 367.043 368.247 367.408 376.775 367.026 385.182
C 366.91 387.73 367.715 391.78 366.617 394.109
C 366.19 395.017 365.109 395.213 364.219 395.34
C 362.085 395.645 359.705 395.595 357.565 395.363
C 356.642 395.263 355.444 394.87 355.055 393.913
C 354.222 391.864 354.888 388.201 354.894 385.996
C 354.91 380.163 354.902 374.33 354.912 368.497
C 354.923 362.071 354.554 355.526 354.985 349.115 Z"
opacity="1" fill="rgb(10,126,184)" fill-rule="evenodd" />
<path d="
M 443.942 340.607
C 444.542 334.7 452.053 336.23 456.401 336.44
C 456.623 327.551 454.086 316.012 462.971 310.347
C 464.039 309.666 465.297 309.144 466.533 308.861
C 470.103 308.042 473.926 308.256 477.562 308.258
C 480.37 308.26 484.56 307.501 487.166 308.606
C 490.66 310.087 490.195 317.401 487.571 319.469
C 486.289 320.081 484.482 319.79 483.099 319.773
C 479.543 319.729 474.47 318.935 471.245 320.714
C 468.992 321.958 468.8 324.014 468.747 326.331
C 468.669 329.751 468.861 333.174 468.776 336.592
C 472.671 336.733 476.606 336.494 480.508 336.539
C 482.123 336.558 484.296 336.265 485.799 336.941
C 488.808 338.295 488.606 345.646 485.948 347.228
C 484.419 348.139 482.094 347.83 480.396 347.824
C 476.654 347.81 472.676 347.402 468.968 347.943
C 468.762 357.958 468.733 367.982 468.743 378.006
C 468.746 381.339 468.745 384.672 468.741 388.005
C 468.74 389.684 468.98 391.574 468.662 393.226
C 468.017 396.579 462.822 395.572 460.427 395.498
C 459.253 395.462 457.902 395.554 457.086 394.539
C 456.319 393.585 456.603 392.144 456.551 391.005
C 456.412 387.96 456.414 384.925 456.412 381.874
C 456.407 374.415 456.374 366.956 456.357 359.496
C 456.348 355.721 456.861 351.571 456.254 347.844
C 454.083 347.742 451.917 347.772 449.745 347.747
C 448.833 347.736 447.551 347.935 446.7 347.544
C 444.479 346.522 443.872 342.753 443.942 340.607 Z"
opacity="1" fill="rgb(13,124,182)" fill-rule="evenodd" />
<path d="
M 496.83 310.044
C 498.077 306.995 503.538 307.974 506.203 308.148
C 507.483 308.232 508.861 308.766 509.145 310.178
C 509.525 312.063 509.264 314.34 509.264 316.263
C 509.262 320.509 509.182 324.756 509.129 329.002
C 508.988 340.333 509.246 351.672 509.235 363.004
C 509.231 367.426 509.23 371.849 509.184 376.271
C 509.165 378.14 508.712 380.718 509.879 382.325
C 512.269 385.618 516.723 382.779 519.553 384.852
C 520.276 385.657 520.308 386.619 520.411 387.654
C 520.648 390.019 521.139 394.089 518.236 395.078
C 516.504 395.668 514.297 395.329 512.504 395.286
C 506.356 395.14 500.555 393.62 498.023 387.398
C 496.8 384.391 496.904 380.985 496.868 377.796
C 496.809 372.697 496.864 367.597 496.868 362.498
C 496.878 350.832 496.784 339.165 496.744 327.499
C 496.725 321.853 495.933 315.622 496.83 310.044 Z"
opacity="1" fill="rgb(14,125,185)" fill-rule="evenodd" />
<path d="
M 528.438 346.094
C 528.618 344.873 528.975 343.624 529.571 342.542
C 533.931 334.627 543.301 335.881 551.006 335.853
C 552.839 335.847 554.672 335.842 556.505 335.835
C 558.967 335.824 561.43 335.824 563.893 335.819
C 568.758 335.808 573.662 335.59 577.687 338.804
C 581.881 342.153 581.729 347.11 581.732 352.022
C 581.737 359.129 581.677 366.236 581.633 373.343
C 581.606 377.503 581.978 381.832 581.227 385.941
C 579.297 396.496 567.613 395.373 559.499 395.377
C 557.499 395.378 555.499 395.384 553.5 395.392
C 551.001 395.403 548.501 395.411 546.002 395.425
C 541.169 395.454 536.117 395.703 532.213 392.326
C 528.175 388.833 528.302 383.831 528.27 378.925
C 528.223 371.783 528.265 364.641 528.279 357.499
C 528.285 353.769 527.895 349.791 528.438 346.094 Z
M 540.395 349.597
C 539.957 352.297 540.295 355.274 540.289 358.003
C 540.276 363.337 540.273 368.671 540.27 374.004
C 540.269 376.688 539.62 380.725 541.679 382.817
C 543.361 384.527 546.29 383.939 548.47 383.935
C 553.751 383.927 559.047 384.129 564.324 384.056
C 566.82 384.021 568.939 383.338 569.491 380.625
C 570.016 378.042 569.612 375.124 569.593 372.502
C 569.556 367.204 569.566 361.906 569.565 356.608
C 569.565 354.234 570.264 349.823 568.425 348.023
C 566.982 346.61 563.867 346.972 561.988 346.962
C 556.705 346.936 551.415 346.887 546.133 346.938
C 543.916 346.96 540.851 346.783 540.395 349.597 Z"
opacity="1" fill="rgb(12,125,185)" fill-rule="evenodd" />
<path d="
M 588.842 338.118
C 588.977 337.417 588.868 337.769 589.191 337.068
C 590.356 336.109 591.577 336.298 593 336.298
C 595.481 336.297 599.645 335.368 601.03 338.075
C 602.805 341.544 603.411 346.011 604.388 349.768
C 605.934 355.717 607.616 361.632 609.141 367.588
C 610.122 371.416 610.866 375.45 612.211 379.165
C 612.588 379.122 612.947 377.096 613.06 376.723
C 613.835 374.16 614.498 371.506 615.202 368.913
C 617.396 360.829 619.61 352.607 622.18 344.636
C 622.905 342.386 623.308 337.889 625.598 336.677
C 626.31 336.301 627.17 336.336 627.949 336.307
C 630.129 336.225 634.54 335.733 636.001 337.714
C 636.841 338.852 637.134 340.483 637.513 341.82
C 638.232 344.361 638.912 346.912 639.587 349.465
C 641.427 356.415 643.665 363.262 645.622 370.176
C 646.29 372.535 646.926 374.904 647.56 377.272
C 647.736 377.927 647.808 379.237 648.378 379.621
C 650.74 373.074 652.174 365.977 654.048 359.261
C 655.49 354.093 656.607 348.783 658.232 343.673
C 658.866 341.677 659.158 339.19 660.424 337.466
C 661.939 335.402 667.036 336.236 669.291 336.408
C 670.201 336.477 671.394 336.85 671.839 337.752
C 672.355 338.8 671.485 340.573 671.156 341.58
C 670.128 344.733 669.293 347.955 668.307 351.122
C 664.987 361.78 662.047 372.564 658.865 383.263
C 658.029 386.074 657.23 388.913 656.204 391.665
C 655.782 392.794 655.292 394.347 654.224 395.048
C 653.572 395.477 652.456 395.485 651.703 395.568
C 649.412 395.821 643.905 396.468 642.254 394.457
C 640.699 392.562 640.232 389.212 639.512 386.901
C 637.675 381 635.937 375.018 634.323 369.052
C 633.457 365.848 632.408 362.685 631.616 359.462
C 631.368 358.452 631.084 357.448 630.863 356.433
C 630.83 356.281 630.363 354.515 630.327 354.57
C 629.849 355.29 630.033 356.28 629.749 357.096
C 628.921 359.474 628.235 361.931 627.59 364.365
C 625.793 371.143 623.475 377.782 621.45 384.492
C 620.777 386.723 620.051 388.934 619.374 391.164
C 619 392.398 618.64 393.993 617.58 394.844
C 616.748 395.511 615.187 395.434 614.169 395.51
C 611.389 395.714 606.703 396.561 605.082 393.651
C 603.848 391.433 603.374 388.531 602.692 386.094
C 601.343 381.278 599.947 376.456 598.475 371.677
C 596.276 364.537 594.058 357.38 592.107 350.168
C 591.058 346.295 589.172 342.118 588.842 338.118 Z"
opacity="1" fill="rgb(10,125,185)" fill-rule="evenodd" />

</svg>